inDegrees=yes
name=ik_lifting_orientations
DataType=double
version=3
OpenSimVersion=4.5-2024-01-10-34fd6af
endheader
time	pelvis_tilt	pelvis_list	pelvis_rotation	pelvis_tx	pelvis_ty	pelvis_tz	hip_flexion_r	hip_adduction_r	hip_rotation_r	knee_angle_r	knee_angle_r_beta	ankle_angle_r	subtalar_angle_r	mtp_angle_r	hip_flexion_l	hip_adduction_l	hip_rotation_l	knee_angle_l	knee_angle_l_beta	ankle_angle_l	subtalar_angle_l	mtp_angle_l	lumbar_extension	lumbar_bending	lumbar_rotation	arm_flex_r	arm_add_r	arm_rot_r	elbow_flex_r	pro_sup_r	wrist_flex_r	wrist_dev_r	arm_flex_l	arm_add_l	arm_rot_l	elbow_flex_l	pro_sup_l	wrist_flex_l	wrist_dev_l
2.18	-0.4336952748889432	-9.044003084980348	-91.10339569096867	0	0.9399999998679526	0	44.97378137152245	-10.00682190039742	0	59.98041671819717	1.046855758450792	-5.00060503771482	0	0	44.97378137152245	-10.00682190039742	0	59.98041671819717	1.046855758450792	-5.00060503771482	0	0	-16.05529488168631	-2.534151353388362	-17.52571460592218	62.7112600110903	-16.40314279709995	48.26987745386197	148.9446901113503	0.9883610032214469	0	0	0	-12.58274156228418	0	89.03080208101927	0.9883610032214469	0	0
2.19	-0.4348203704466779	-9.168711589769341	-91.60236220853929	0	0.9399999998679526	0	44.97386760891668	-10.00676606112771	0	59.98048034367546	1.046856868924877	-5.000599041370521	0	0	44.97386760891668	-10.00676606112771	0	59.98048034367546	1.046856868924877	-5.000599041370521	0	0	-16.22073554711925	-2.690915524874092	-17.04993528671521	63.6290096866314	-14.16597712207114	48.66797109975512	149.1562465868483	0.9858866341538631	0	0	0	-12.58752518056633	0	89.03322802990074	0.9858866341538631	0	0
2.2	-0.5084870192752812	-9.415666810804037	-91.28990761120014	0	0.9399999998679526	0	44.97396456660671	-10.00670333608999	0	59.98055160846409	1.046858112730079	-5.000592313373174	0	0	44.97396456660671	-10.00670333608999	0	59.98055160846409	1.046858112730079	-5.000592313373174	0	0	-16.42130262833334	-2.51402739357809	-17.34956848400984	64.27288024208126	-12.02373845770328	48.87384335229612	149.4869964255087	0.9831058316576683	0	0	0	-12.59289889982741	0	89.03595441568748	0.9831058316576683	0	0
2.21	-0.5395096187845851	-9.586437868971732	-91.426271728957	0	0.9399999998679526	0	44.97406111950464	-10.00664177859471	0	59.98062296599521	1.046859358153943	-5.000585738001389	0	0	44.97406111950464	-10.00664177859471	0	59.98062296599521	1.046859358153943	-5.000585738001389	0	0	-16.7168638762439	-2.558372527835707	-17.27829213699721	65.06926322653287	-9.541135533410324	49.1969276439555	149.4376651867306	0.9803283759142978	0	0	0	-12.59827776647943	0	89.0386775203222	0.9803283759142978	0	0
2.22	-0.5480874589338589	-9.770283492970387	-92.05661540329699	0	0.9399999998679526	0	44.97423475276866	-10.00653530802009	0	59.98075310054545	1.046861629430315	-5.000574498766941	0	0	44.97423475276866	-10.00653530802009	0	59.98075310054545	1.046861629430315	-5.000574498766941	0	0	-16.93015592386264	-2.756790355827788	-16.66033926130219	66.02358613971808	-7.092503769490444	49.37768269215703	147.7468399240778	0.975296454276506	0	0	0	-12.60807412655861	0	89.04361097442602	0.975296454276506	0	0
2.23	-0.5907875752845982	-9.973900970149856	-91.86405311655047	0	0.9399999998679526	0	44.97438551395457	-10.00644279165913	0	59.98086558216245	1.04686359260488	-5.000564735091197	0	0	44.97438551395457	-10.00644279165913	0	59.98086558216245	1.04686359260488	-5.000564735091197	0	0	-17.01298114450589	-2.625691219448596	-16.85139959036633	66.74517857153459	-4.918984393327356	49.62614905129254	146.2777697761969	0.9709293994350663	0	0	0	-12.61657260496235	0	89.04789257219718	0.9709293994350663	0	0
2.24	-0.6192567311984136	-10.23778961645614	-91.98743608492032	0	0.9399999998679526	0	44.97452022501465	-10.00636016033082	0	59.98096577340777	1.046865341271993	-5.000556018816662	0	0	44.97452022501465	-10.00636016033082	0	59.98096577340777	1.046865341271993	-5.000556018816662	0	0	-17.26954514825026	-2.641193111136879	-16.80004711924182	67.64511226257741	-2.375752713072073	49.91206797458992	144.9102954019374	0.967027824550225	0	0	0	-12.62416402325394	0	89.05171779878454	0.967027824550225	0	0
2.25	-0.6743299800658318	-10.40729051543034	-91.57323659428356	0	0.9399999998679526	0	44.97453243979184	-10.00634950636224	0	59.98097298586263	1.046865467153077	-5.000554803640475	0	0	44.97453243979184	-10.00634950636224	0	59.98097298586263	1.046865467153077	-5.000554803640475	0	0	-17.46854814163819	-2.472731843114419	-17.26590099213487	68.56992126110386	0.01528749375056675	50.08714093858236	142.2985916574843	0.9667052629544283	0	0	0	-12.62474726835777	0	89.05203404792297	0.9667052629544283	0	0
2.26	-0.6916952786751978	-10.46406300518265	-91.40683873685076	0	0.9399999998679526	0	44.9745441857122	-10.00633926928299	0	59.9809799197965	1.046865588173053	-5.000553636517253	0	0	44.9745441857122	-10.00633926928299	0	59.9809799197965	1.046865588173053	-5.000553636517253	0	0	-17.52897462065076	-2.400153494952407	-17.27779269103738	69.36577421876501	2.106533051503012	50.17753944319267	139.8009453244644	0.9663950788092781	0	0	0	-12.62530811815065	0	89.05233816183507	0.9663950788092781	0	0
2.27	-0.7068873615448151	-10.52324740389299	-91.25391168859313	0	0.9399999998679526	0	44.97458245084974	-10.00630616896979	0	59.98100254850338	1.046865983118494	-5.000549873216147	0	0	44.97458245084974	-10.00630616896979	0	59.98100254850338	1.046865983118494	-5.000549873216147	0	0	-17.29116830774598	-2.264391188554076	-17.34751383037931	69.85921964364447	4.043920641759732	50.35069977514716	136.6740882274258	0.9653835014231072	0	0	0	-12.62713837233442	0	89.05332994289726	0.9653835014231072	0	0
2.28	-0.6869175784954519	-10.53428741033572	-91.93772800516177	0	0.9399999998679526	0	44.97461222369608	-10.00628104999413	0	59.98102042609857	1.046866295141392	-5.000547035180504	0	0	44.97461222369608	-10.00628104999413	0	59.98102042609857	1.046866295141392	-5.000547035180504	0	0	-17.15857993555645	-2.446323800764174	-16.50169117445338	70.22347614332325	5.15819902092993	50.25280207395559	134.0416055010407	0.9645913954059893	0	0	0	-12.6285789347392	0	89.05410654766015	0.9645913954059893	0	0
2.29	-0.6569661672052328	-10.51067186959798	-92.17188692169475	0	0.9399999998679526	0	44.975224270788	-10.00594067927318	0	59.98148389472356	1.046874384194878	-5.000512411312282	0	0	44.975224270788	-10.00594067927318	0	59.98148389472356	1.046874384194878	-5.000512411312282	0	0	-17.00353956197637	-2.510557056104085	-16.09663406055853	70.66299265877861	6.261349617902794	50.07052693473164	130.4467592409079	0.946602439701082	0	0	0	-12.66391951055001	0	89.07174348781696	0.946602439701082	0	0
2.3	-0.6172624956130677	-10.47946078672584	-92.42755629333574	0	0.9399999998679526	0	44.97531019026379	-10.00587411231182	0	59.98153646451718	1.046875301710864	-5.000505090517136	0	0	44.97531019026379	-10.00587411231182	0	59.98153646451718	1.046875301710864	-5.000505090517136	0	0	-16.71435103567785	-2.54075066222509	-15.77099507216748	71.18978914130351	7.754489592886448	49.98720299863307	126.9609276891974	0.9442822822731809	0	0	0	-12.6681817648293	0	89.07401824109483	0.9442822822731809	0	0
2.31	-0.5364804135474374	-10.29807258188158	-93.66093702369879	0	0.9399999998679526	0	44.97533016728141	-10.00585780831264	0	59.9815484046504	1.046875510105502	-5.000503270067314	0	0	44.97533016728141	-10.00585780831264	0	59.9815484046504	1.046875510105502	-5.000503270067314	0	0	-16.2290564282794	-2.88462898541921	-14.45530331362588	71.64772241882569	9.151950237602575	50.00748426356727	124.7406638785631	0.9437482655086701	0	0	0	-12.66915575615699	0	89.07454180740018	0.9437482655086701	0	0
